<svg width="480" height="325" viewBox="0 0 480 325" fill="none" xmlns="http://www.w3.org/2000/svg">
<path d="M175.349 97.617C171.699 97.617 168.345 98.4326 165.189 99.8599C165.583 97.1073 165.78 94.3546 165.78 91.6019C165.78 59.7934 140.921 34 110.142 34C84.1977 34 62.4949 52.2491 56.28 77.023C53.1232 76.1055 49.8678 75.5957 46.5137 75.5957C26.8825 75.5957 11 92.0098 11 112.298C11 132.586 26.8825 149 46.5137 149H175.448C189.16 149 200.308 137.48 200.308 123.309C200.308 109.137 189.16 97.617 175.349 97.617Z" fill="#D7EFFE"/>
<path d="M192.155 160.85C191.847 160.31 191.616 159.693 191.5 159.037C191.616 159.654 191.847 160.272 192.155 160.85Z" fill="#073042"/>
<path d="M192.114 124.857C191.805 125.59 191.613 126.362 191.536 127.211C191.613 126.362 191.805 125.59 192.114 124.857Z" fill="#073042"/>
<path d="M192.965 161.854C193.273 162.162 193.62 162.432 194.005 162.625L220.283 177.477L194.005 162.625C193.62 162.432 193.273 162.162 192.965 161.854Z" fill="#073042"/>
<path d="M224.328 196.264C224.251 196.264 224.174 196.264 224.136 196.264C222.209 196.264 220.283 195.801 218.549 194.837L179.324 172.693C177.012 171.382 175.587 168.951 175.587 166.328V121.269C175.587 119.34 175.933 117.489 176.742 115.868L146.072 98.624C144.8 101.324 144.145 104.372 144.184 107.574V181.991C144.222 186.35 146.573 190.362 150.387 192.522L215.081 229.094C217.932 230.714 221.13 231.486 224.29 231.486V231.447C224.367 226.779 224.328 208.069 224.328 196.264Z" fill="#073042"/>
<path d="M255.115 124.047C255.037 123.932 254.96 123.816 254.883 123.7C254.691 123.43 254.498 123.199 254.305 122.929C254.498 123.16 254.691 123.43 254.883 123.7C254.96 123.777 255.037 123.893 255.115 124.047Z" fill="#3DDC84"/>
<path d="M192.461 124.086C192.615 123.815 192.808 123.545 193.001 123.275C192.808 123.545 192.615 123.815 192.461 124.086Z" fill="#3DDC84"/>
<path d="M222.826 105.993C223.019 105.993 223.173 105.954 223.366 105.954C223.173 105.993 222.981 105.993 222.826 105.993Z" fill="#3DDC84"/>
<path d="M176.704 115.83C177.551 114.055 178.862 112.589 180.634 111.509L217.547 89.7126C220.976 87.668 225.214 87.6294 228.721 89.5969L266.019 110.699C267.676 111.625 269.14 112.975 270.219 114.557L300.388 96.5409C298.616 93.9562 296.227 91.7572 293.491 90.2141L231.88 55.3784C226.139 52.1379 219.126 52.215 213.462 55.5713L152.545 91.5258C149.616 93.2618 147.459 95.7307 146.072 98.6241L176.704 115.83Z" fill="#3DDC84"/>
<path d="M221.286 106.301C221.363 106.262 221.44 106.262 221.517 106.224C221.44 106.262 221.363 106.262 221.286 106.301Z" fill="#3DDC84"/>
<path d="M192.232 124.509C192.309 124.355 192.386 124.201 192.463 124.085C192.386 124.239 192.309 124.355 192.232 124.509C192.193 124.625 192.155 124.741 192.116 124.857C192.155 124.741 192.193 124.625 192.232 124.509Z" fill="#3DDC84"/>
<path d="M300.351 96.541L270.181 114.557C271.337 116.254 272.031 118.26 272.069 120.305V163.203C272.108 167.215 270.027 170.919 266.598 172.925L229.685 194.721C228.028 195.686 226.179 196.226 224.329 196.265C224.368 208.031 224.368 226.741 224.291 231.409V231.447C227.489 231.409 230.648 230.56 233.5 228.901L294.417 192.908C300.081 189.552 303.549 183.457 303.472 176.86V106.07C303.434 102.636 302.278 99.3572 300.351 96.541Z" fill="#4285F4"/>
<path d="M255.809 158.612C255.771 158.689 255.771 158.767 255.732 158.844C255.771 158.767 255.809 158.689 255.809 158.612Z" fill="#4285F4"/>
<path d="M255.423 124.548C255.346 124.355 255.23 124.201 255.115 124.008C255.23 124.201 255.346 124.394 255.423 124.548Z" fill="#4285F4"/>
<path d="M227.759 177.439L252.496 162.818C252.65 162.741 252.765 162.625 252.919 162.548C252.765 162.625 252.65 162.741 252.496 162.818L227.759 177.439Z" fill="#4285F4"/>
<path d="M255.5 159.5C255.423 159.693 255.308 159.886 255.231 160.079C255.308 159.847 255.385 159.654 255.5 159.5Z" fill="#4285F4"/>
<path d="M253.689 161.93C254.036 161.621 254.383 161.235 254.691 160.85C254.383 161.235 254.036 161.621 253.689 161.93Z" fill="#4285F4"/>
<path d="M255.192 160.04C255.037 160.31 254.845 160.58 254.652 160.85C254.845 160.58 255.037 160.31 255.192 160.04Z" fill="#4285F4"/>
<path d="M192.117 124.857C191.808 125.59 191.616 126.361 191.539 127.21C191.5 127.519 191.5 127.827 191.5 128.174V158.381C191.5 158.612 191.5 158.805 191.539 159.037C191.616 159.692 191.847 160.31 192.194 160.85C192.425 161.236 192.695 161.544 192.964 161.853C193.273 162.161 193.619 162.431 194.005 162.624L220.283 177.477C221.439 178.133 222.749 178.441 224.02 178.441C224.097 178.441 224.213 178.441 224.29 178.441C225.484 178.403 226.679 178.055 227.758 177.4L252.495 162.779C252.649 162.702 252.764 162.586 252.919 162.509C253.188 162.316 253.458 162.123 253.689 161.891C254.036 161.583 254.383 161.197 254.691 160.811C254.884 160.541 255.076 160.271 255.23 160.001C255.346 159.808 255.423 159.615 255.5 159.422C255.577 159.23 255.693 158.998 255.77 158.767C255.808 158.689 255.808 158.612 255.847 158.535C256.078 157.802 256.194 157.031 256.194 156.22V127.48C256.194 126.94 256.117 126.438 256.001 125.937C255.924 125.59 255.808 125.281 255.693 124.972C255.616 124.818 255.539 124.664 255.462 124.51C255.384 124.317 255.269 124.162 255.153 123.969C255.076 123.854 254.999 123.738 254.922 123.622C254.729 123.352 254.537 123.121 254.344 122.851C253.728 122.118 252.957 121.5 252.109 121.038L227.103 106.879C226.679 106.648 226.217 106.417 225.754 106.262C225.138 106.069 224.483 105.954 223.828 105.915C223.673 105.915 223.519 105.915 223.327 105.915C223.134 105.915 222.98 105.915 222.787 105.954C222.363 105.992 221.901 106.069 221.477 106.185C221.4 106.224 221.323 106.224 221.246 106.262C220.668 106.417 220.129 106.687 219.589 106.995L194.852 121.616C194.12 122.041 193.504 122.619 193.003 123.275C192.81 123.545 192.617 123.815 192.463 124.085C192.386 124.239 192.309 124.355 192.232 124.51C192.194 124.625 192.155 124.741 192.117 124.857Z" fill="#D7EFFE"/>
<path d="M224.288 178.442C224.211 178.442 224.095 178.442 224.018 178.442C222.747 178.442 221.437 178.133 220.281 177.477L194.003 162.625C193.617 162.393 193.27 162.162 192.962 161.853C192.654 161.545 192.384 161.198 192.192 160.85C191.883 160.31 191.652 159.693 191.537 159.037C191.498 158.806 191.498 158.613 191.498 158.381V128.175C191.498 127.866 191.498 127.519 191.537 127.211C191.614 126.4 191.806 125.59 192.114 124.857L185.025 120.498L176.702 115.83C175.931 117.45 175.546 119.302 175.546 121.231V166.29C175.585 168.913 177.01 171.343 179.284 172.655L218.47 194.837C220.204 195.802 222.13 196.303 224.057 196.265C224.134 196.265 224.211 196.265 224.249 196.265C224.249 190.517 224.211 186.427 224.211 186.427L224.288 178.442Z" fill="#073042"/>
<path d="M224.288 178.442C224.211 178.442 224.095 178.442 224.018 178.442C222.747 178.442 221.437 178.133 220.281 177.477L194.003 162.625C193.617 162.393 193.27 162.162 192.962 161.853C192.654 161.545 192.384 161.198 192.192 160.85C191.883 160.31 191.652 159.693 191.537 159.037C191.498 158.806 191.498 158.613 191.498 158.381V128.175C191.498 127.866 191.498 127.519 191.537 127.211C191.614 126.4 191.806 125.59 192.114 124.857L185.025 120.498L176.702 115.83C175.931 117.45 175.546 119.302 175.546 121.231V166.29C175.585 168.913 177.01 171.343 179.284 172.655L218.47 194.837C220.204 195.802 222.13 196.303 224.057 196.265C224.134 196.265 224.211 196.265 224.249 196.265C224.249 190.517 224.211 186.427 224.211 186.427L224.288 178.442Z" fill="#041619"/>
<path d="M265.98 110.699L228.682 89.5966C225.214 87.6292 220.975 87.6677 217.508 89.7124L180.595 111.509C178.823 112.55 177.512 114.055 176.665 115.83L185.026 120.497L192.116 124.857C192.154 124.741 192.193 124.625 192.231 124.51C192.308 124.355 192.385 124.201 192.462 124.085C192.617 123.815 192.809 123.545 193.002 123.275C193.503 122.619 194.119 122.079 194.851 121.616L219.588 106.995C220.128 106.687 220.667 106.455 221.245 106.262C221.322 106.224 221.399 106.224 221.476 106.185C221.9 106.069 222.324 105.992 222.786 105.954C222.979 105.954 223.133 105.915 223.326 105.915C223.48 105.915 223.634 105.915 223.827 105.915C224.482 105.954 225.098 106.069 225.753 106.262C226.216 106.417 226.678 106.609 227.102 106.879L252.109 121.038C252.956 121.5 253.688 122.118 254.343 122.851C254.536 123.082 254.729 123.352 254.921 123.622C254.998 123.738 255.075 123.854 255.152 123.969L261.549 119.687L270.218 114.479C269.101 112.975 267.675 111.625 265.98 110.699Z" fill="#3DDC84"/>
<path d="M265.98 110.699L228.682 89.5966C225.214 87.6292 220.975 87.6677 217.508 89.7124L180.595 111.509C178.823 112.55 177.512 114.055 176.665 115.83L185.026 120.497L192.116 124.857C192.154 124.741 192.193 124.625 192.231 124.51C192.308 124.355 192.385 124.201 192.462 124.085C192.617 123.815 192.809 123.545 193.002 123.275C193.503 122.619 194.119 122.079 194.851 121.616L219.588 106.995C220.128 106.687 220.667 106.455 221.245 106.262C221.322 106.224 221.399 106.224 221.476 106.185C221.9 106.069 222.324 105.992 222.786 105.954C222.979 105.954 223.133 105.915 223.326 105.915C223.48 105.915 223.634 105.915 223.827 105.915C224.482 105.954 225.098 106.069 225.753 106.262C226.216 106.417 226.678 106.609 227.102 106.879L252.109 121.038C252.956 121.5 253.688 122.118 254.343 122.851C254.536 123.082 254.729 123.352 254.921 123.622C254.998 123.738 255.075 123.854 255.152 123.969L261.549 119.687L270.218 114.479C269.101 112.975 267.675 111.625 265.98 110.699Z" fill="#37BF6E"/>
<path d="M255.117 124.047C255.232 124.24 255.309 124.394 255.425 124.587C255.502 124.741 255.579 124.895 255.656 125.05C255.772 125.358 255.887 125.706 255.964 126.014C256.08 126.516 256.157 127.017 256.157 127.557V156.298C256.157 157.108 256.041 157.879 255.81 158.612C255.772 158.69 255.772 158.767 255.733 158.844C255.656 159.075 255.579 159.268 255.463 159.5C255.386 159.693 255.271 159.886 255.194 160.078C255.04 160.348 254.847 160.618 254.654 160.889C254.346 161.274 254.038 161.622 253.652 161.969C253.421 162.2 253.151 162.393 252.882 162.586C252.728 162.663 252.612 162.779 252.458 162.856L227.721 177.477C226.642 178.094 225.448 178.441 224.253 178.519V186.504C224.253 186.504 224.253 190.593 224.292 196.341C226.141 196.303 227.991 195.801 229.648 194.798L266.56 173.002C269.99 170.957 272.07 167.254 272.032 163.28V120.382C271.993 118.299 271.3 116.331 270.144 114.634L261.474 119.842L255.117 124.047Z" fill="#4285F4"/>
<path d="M255.117 124.047C255.232 124.24 255.309 124.394 255.425 124.587C255.502 124.741 255.579 124.895 255.656 125.05C255.772 125.358 255.887 125.706 255.964 126.014C256.08 126.516 256.157 127.017 256.157 127.557V156.298C256.157 157.108 256.041 157.879 255.81 158.612C255.772 158.69 255.772 158.767 255.733 158.844C255.656 159.075 255.579 159.268 255.463 159.5C255.386 159.693 255.271 159.886 255.194 160.078C255.04 160.348 254.847 160.618 254.654 160.889C254.346 161.274 254.038 161.622 253.652 161.969C253.421 162.2 253.151 162.393 252.882 162.586C252.728 162.663 252.612 162.779 252.458 162.856L227.721 177.477C226.642 178.094 225.448 178.441 224.253 178.519V186.504C224.253 186.504 224.253 190.593 224.292 196.341C226.141 196.303 227.991 195.801 229.648 194.798L266.56 173.002C269.99 170.957 272.07 167.254 272.032 163.28V120.382C271.993 118.299 271.3 116.331 270.144 114.634L261.474 119.842L255.117 124.047Z" fill="#3870B2"/>
<path d="M221.287 106.301C220.709 106.455 220.17 106.725 219.631 107.034L194.894 121.655L219.631 107.034C220.131 106.725 220.709 106.455 221.287 106.301Z" fill="#D7EFFE"/>
<path opacity="0.1" d="M221.287 106.301C220.709 106.455 220.17 106.725 219.631 107.034L194.894 121.655L219.631 107.034C220.131 106.725 220.709 106.455 221.287 106.301Z" fill="black"/>
<path d="M254.305 122.928C253.688 122.195 252.917 121.578 252.07 121.115L227.063 106.957L252.07 121.115C252.917 121.578 253.688 122.195 254.305 122.928Z" fill="#D7EFFE"/>
<path opacity="0.1" d="M254.305 122.928C253.688 122.195 252.917 121.578 252.07 121.115L227.063 106.957L252.07 121.115C252.917 121.578 253.688 122.195 254.305 122.928Z" fill="black"/>
<path d="M221.515 106.224C221.938 106.108 222.362 106.031 222.825 105.992C222.362 106.031 221.938 106.108 221.515 106.224Z" fill="#D7EFFE"/>
<path opacity="0.1" d="M221.515 106.224C221.938 106.108 222.362 106.031 222.825 105.992C222.362 106.031 221.938 106.108 221.515 106.224Z" fill="black"/>
<path d="M223.826 105.992C224.481 106.031 225.098 106.147 225.753 106.339C225.098 106.147 224.481 106.031 223.826 105.992Z" fill="#D7EFFE"/>
<path opacity="0.1" d="M223.826 105.992C224.481 106.031 225.098 106.147 225.753 106.339C225.098 106.147 224.481 106.031 223.826 105.992Z" fill="black"/>
<path d="M255.729 158.844C255.652 159.075 255.575 159.268 255.46 159.5C255.575 159.268 255.652 159.075 255.729 158.844Z" fill="#D7EFFE"/>
<path opacity="0.1" d="M255.729 158.844C255.652 159.075 255.575 159.268 255.46 159.5C255.575 159.268 255.652 159.075 255.729 158.844Z" fill="black"/>
<path d="M255.654 125.012C255.769 125.32 255.885 125.668 255.962 125.976C255.885 125.668 255.769 125.359 255.654 125.012Z" fill="#D7EFFE"/>
<path opacity="0.1" d="M255.654 125.012C255.769 125.32 255.885 125.668 255.962 125.976C255.885 125.668 255.769 125.359 255.654 125.012Z" fill="black"/>
<path d="M255.806 158.613C256.038 157.88 256.153 157.108 256.153 156.298V127.558V156.298C256.153 157.108 256.038 157.88 255.806 158.613Z" fill="#D7EFFE"/>
<path opacity="0.1" d="M255.806 158.613C256.038 157.88 256.153 157.108 256.153 156.298V127.558V156.298C256.153 157.108 256.038 157.88 255.806 158.613Z" fill="black"/>
<path d="M327.304 235.691C320.301 241.767 316.297 267.642 316.297 267.642C316.297 267.642 342.429 267.134 349.432 261.059C356.434 254.984 357.19 244.319 350.988 237.307C344.981 230.245 334.375 229.557 327.304 235.691Z" fill="#F6DA00"/>
<path d="M391.452 169.963L428.676 167.33C431.424 167.134 433.59 169.631 433.009 172.324L425.21 208.874L391.452 169.963Z" fill="#4285F4"/>
<path d="M382.184 185.905L359.507 184.427C358.6 184.363 357.735 184.627 357.041 185.229L338.522 201.295C336.234 203.281 337.461 207.078 340.57 207.299L356.373 208.419L382.245 185.974L382.184 185.905Z" fill="#4285F4"/>
<path d="M408.059 215.729L406.322 238.389C406.258 239.296 405.874 240.115 405.181 240.716L386.662 256.783C384.373 258.769 380.787 257.017 381.007 253.908L382.188 238.175L408.059 215.729Z" fill="#4285F4"/>
<path d="M357.331 261.928L329.349 229.676C327.725 227.803 327.918 225.083 329.79 223.458L391.451 169.963L425.209 208.874L363.618 262.309C361.745 263.933 358.895 263.731 357.331 261.928Z" fill="#D7EFFE"/>
<path d="M337.033 122.066C343.126 122.066 348.066 117.126 348.066 111.033C348.066 104.94 343.126 100 337.033 100C330.94 100 326 104.94 326 111.033C326 117.126 330.94 122.066 337.033 122.066Z" stroke="#4285F4" stroke-width="3.50247" stroke-miterlimit="10"/>
<path d="M133.033 263.066C139.126 263.066 144.066 258.126 144.066 252.033C144.066 245.94 139.126 241 133.033 241C126.94 241 122 245.94 122 252.033C122 258.126 126.94 263.066 133.033 263.066Z" stroke="#4285F4" stroke-width="3.50247" stroke-miterlimit="10"/>
<path d="M79.1381 192.276C81.9758 192.276 84.2763 189.976 84.2763 187.138C84.2763 184.3 81.9758 182 79.1381 182C76.3004 182 74 184.3 74 187.138C74 189.976 76.3004 192.276 79.1381 192.276Z" fill="#F1D949"/>
<path d="M391.138 84.2762C393.976 84.2762 396.276 81.9758 396.276 79.1381C396.276 76.3004 393.976 74 391.138 74C388.3 74 386 76.3004 386 79.1381C386 81.9758 388.3 84.2762 391.138 84.2762Z" fill="#F1D949"/>
<path d="M288.138 53.2762C290.976 53.2762 293.276 50.9758 293.276 48.1381C293.276 45.3004 290.976 43 288.138 43C285.3 43 283 45.3004 283 48.1381C283 50.9758 285.3 53.2762 288.138 53.2762Z" fill="#F1D949"/>
</svg>
